<mxfile host="app.diagrams.net" modified="2022-12-21T10:33:58.965Z" agent="5.0 (X11)" version="20.6.2" etag="WD1qSQk6A3muOK9DE6uh" type="github">
  <diagram id="KSw2pq7QWvrgQZUM4CQr" name="Page-1">
    <mxGraphModel dx="1350" dy="793" grid="1" gridSize="10" guides="1" tooltips="1" connect="1" arrows="1" fold="1" page="1" pageScale="1" pageWidth="850" pageHeight="1100" math="0" shadow="0">
      <root>
        <mxCell id="0" />
        <mxCell id="1" parent="0" />
        <mxCell id="ym_wlVn3fW00bw_4UrsF-1" value="" style="rounded=1;whiteSpace=wrap;html=1;" vertex="1" parent="1">
          <mxGeometry x="40" y="290" width="190" height="550" as="geometry" />
        </mxCell>
        <UserObject label="&lt;div&gt;Data Provider&lt;/div&gt;&lt;div&gt;Data Tier(s)&lt;br&gt;&lt;/div&gt;" placeholders="1" name="Variable" id="ym_wlVn3fW00bw_4UrsF-2">
          <mxCell style="text;html=1;strokeColor=none;fillColor=none;align=center;verticalAlign=middle;whiteSpace=wrap;overflow=hidden;" vertex="1" parent="1">
            <mxGeometry x="95" y="310" width="80" height="30" as="geometry" />
          </mxCell>
        </UserObject>
        <mxCell id="ym_wlVn3fW00bw_4UrsF-7" value="" style="rounded=1;whiteSpace=wrap;html=1;" vertex="1" parent="1">
          <mxGeometry x="75" y="350" width="120" height="140" as="geometry" />
        </mxCell>
        <mxCell id="ym_wlVn3fW00bw_4UrsF-8" value="" style="shape=cylinder3;whiteSpace=wrap;html=1;boundedLbl=1;backgroundOutline=1;size=15;" vertex="1" parent="1">
          <mxGeometry x="105" y="370" width="60" height="70" as="geometry" />
        </mxCell>
        <mxCell id="ym_wlVn3fW00bw_4UrsF-9" value="" style="rounded=1;whiteSpace=wrap;html=1;" vertex="1" parent="1">
          <mxGeometry x="75" y="510" width="120" height="140" as="geometry" />
        </mxCell>
        <mxCell id="ym_wlVn3fW00bw_4UrsF-10" value="" style="shape=cylinder3;whiteSpace=wrap;html=1;boundedLbl=1;backgroundOutline=1;size=15;" vertex="1" parent="1">
          <mxGeometry x="105" y="530" width="60" height="70" as="geometry" />
        </mxCell>
        <mxCell id="ym_wlVn3fW00bw_4UrsF-11" value="" style="rounded=1;whiteSpace=wrap;html=1;" vertex="1" parent="1">
          <mxGeometry x="75" y="670" width="120" height="140" as="geometry" />
        </mxCell>
        <mxCell id="ym_wlVn3fW00bw_4UrsF-12" value="" style="shape=cylinder3;whiteSpace=wrap;html=1;boundedLbl=1;backgroundOutline=1;size=15;" vertex="1" parent="1">
          <mxGeometry x="105" y="690" width="60" height="70" as="geometry" />
        </mxCell>
        <UserObject label="Data Source 1" placeholders="1" name="Variable" id="ym_wlVn3fW00bw_4UrsF-13">
          <mxCell style="text;html=1;strokeColor=none;fillColor=none;align=center;verticalAlign=middle;whiteSpace=wrap;overflow=hidden;" vertex="1" parent="1">
            <mxGeometry x="95" y="450" width="80" height="30" as="geometry" />
          </mxCell>
        </UserObject>
        <UserObject label="Data Source 2" placeholders="1" name="Variable" id="ym_wlVn3fW00bw_4UrsF-14">
          <mxCell style="text;html=1;strokeColor=none;fillColor=none;align=center;verticalAlign=middle;whiteSpace=wrap;overflow=hidden;" vertex="1" parent="1">
            <mxGeometry x="95" y="610" width="80" height="30" as="geometry" />
          </mxCell>
        </UserObject>
        <UserObject label="Data Source 3" placeholders="1" name="Variable" id="ym_wlVn3fW00bw_4UrsF-15">
          <mxCell style="text;html=1;strokeColor=none;fillColor=none;align=center;verticalAlign=middle;whiteSpace=wrap;overflow=hidden;" vertex="1" parent="1">
            <mxGeometry x="95" y="770" width="80" height="30" as="geometry" />
          </mxCell>
        </UserObject>
        <UserObject label="d1" placeholders="1" name="Variable" id="ym_wlVn3fW00bw_4UrsF-16">
          <mxCell style="text;html=1;strokeColor=none;fillColor=none;align=center;verticalAlign=middle;whiteSpace=wrap;overflow=hidden;" vertex="1" parent="1">
            <mxGeometry x="105" y="407.5" width="65" height="25" as="geometry" />
          </mxCell>
        </UserObject>
        <UserObject label="d2" placeholders="1" name="Variable" id="ym_wlVn3fW00bw_4UrsF-17">
          <mxCell style="text;html=1;strokeColor=none;fillColor=none;align=center;verticalAlign=middle;whiteSpace=wrap;overflow=hidden;" vertex="1" parent="1">
            <mxGeometry x="102.5" y="567.5" width="65" height="25" as="geometry" />
          </mxCell>
        </UserObject>
        <UserObject label="d3" placeholders="1" name="Variable" id="ym_wlVn3fW00bw_4UrsF-18">
          <mxCell style="text;html=1;strokeColor=none;fillColor=none;align=center;verticalAlign=middle;whiteSpace=wrap;overflow=hidden;" vertex="1" parent="1">
            <mxGeometry x="102.5" y="727.5" width="65" height="25" as="geometry" />
          </mxCell>
        </UserObject>
        <mxCell id="ym_wlVn3fW00bw_4UrsF-20" value="" style="rounded=1;whiteSpace=wrap;html=1;" vertex="1" parent="1">
          <mxGeometry x="300" y="290" width="190" height="550" as="geometry" />
        </mxCell>
        <mxCell id="ym_wlVn3fW00bw_4UrsF-22" value="" style="line;strokeWidth=1;html=1;" vertex="1" parent="1">
          <mxGeometry x="300" y="360" width="190" height="10" as="geometry" />
        </mxCell>
        <mxCell id="ym_wlVn3fW00bw_4UrsF-23" value="" style="line;strokeWidth=1;html=1;" vertex="1" parent="1">
          <mxGeometry x="300" y="500" width="190" height="10" as="geometry" />
        </mxCell>
        <mxCell id="ym_wlVn3fW00bw_4UrsF-24" value="" style="line;strokeWidth=1;html=1;" vertex="1" parent="1">
          <mxGeometry x="300" y="640" width="190" height="10" as="geometry" />
        </mxCell>
        <UserObject label="&lt;div&gt;Service Host Online&lt;/div&gt;Service (Bank)" placeholders="1" name="Variable" id="ym_wlVn3fW00bw_4UrsF-25">
          <mxCell style="text;html=1;strokeColor=none;fillColor=none;align=center;verticalAlign=middle;whiteSpace=wrap;overflow=hidden;" vertex="1" parent="1">
            <mxGeometry x="337.5" y="310" width="115" height="50" as="geometry" />
          </mxCell>
        </UserObject>
        <UserObject label="&lt;div&gt;Web/App Tier&lt;/div&gt;&lt;div&gt;&lt;br&gt;&lt;/div&gt;" placeholders="1" name="Variable" id="ym_wlVn3fW00bw_4UrsF-26">
          <mxCell style="text;html=1;strokeColor=none;fillColor=none;align=center;verticalAlign=middle;whiteSpace=wrap;overflow=hidden;" vertex="1" parent="1">
            <mxGeometry x="355" y="420" width="80" height="30" as="geometry" />
          </mxCell>
        </UserObject>
        <UserObject label="&lt;div&gt;Application Services&lt;/div&gt;&lt;div&gt;&lt;br&gt;&lt;/div&gt;" placeholders="1" name="Variable" id="ym_wlVn3fW00bw_4UrsF-27">
          <mxCell style="text;html=1;strokeColor=none;fillColor=none;align=center;verticalAlign=middle;whiteSpace=wrap;overflow=hidden;" vertex="1" parent="1">
            <mxGeometry x="330" y="562.5" width="130" height="30" as="geometry" />
          </mxCell>
        </UserObject>
        <mxCell id="ym_wlVn3fW00bw_4UrsF-35" value="" style="shape=partialRectangle;whiteSpace=wrap;html=1;bottom=0;right=0;fillColor=none;strokeWidth=1;direction=north;" vertex="1" parent="1">
          <mxGeometry x="420" y="645" width="70" height="45" as="geometry" />
        </mxCell>
        <UserObject label="DAP&lt;br&gt;&lt;div&gt;Adapter&lt;/div&gt;&lt;div&gt;&lt;br&gt;&lt;/div&gt;" placeholders="1" name="Variable" id="ym_wlVn3fW00bw_4UrsF-36">
          <mxCell style="text;html=1;strokeColor=none;fillColor=none;align=center;verticalAlign=middle;whiteSpace=wrap;overflow=hidden;" vertex="1" parent="1">
            <mxGeometry x="422.5" y="650" width="65" height="40" as="geometry" />
          </mxCell>
        </UserObject>
        <mxCell id="ym_wlVn3fW00bw_4UrsF-37" value="" style="endArrow=none;html=1;rounded=0;entryX=0.002;entryY=0.518;entryDx=0;entryDy=0;entryPerimeter=0;exitX=0.996;exitY=0.392;exitDx=0;exitDy=0;exitPerimeter=0;strokeWidth=2;" edge="1" parent="1" source="ym_wlVn3fW00bw_4UrsF-9" target="ym_wlVn3fW00bw_4UrsF-20">
          <mxGeometry width="50" height="50" relative="1" as="geometry">
            <mxPoint x="190" y="560" as="sourcePoint" />
            <mxPoint x="240" y="510" as="targetPoint" />
          </mxGeometry>
        </mxCell>
        <mxCell id="ym_wlVn3fW00bw_4UrsF-39" value="" style="endArrow=none;html=1;rounded=0;strokeWidth=2;entryX=-0.004;entryY=0.513;entryDx=0;entryDy=0;entryPerimeter=0;" edge="1" parent="1" target="ym_wlVn3fW00bw_4UrsF-20">
          <mxGeometry width="50" height="50" relative="1" as="geometry">
            <mxPoint x="195" y="430" as="sourcePoint" />
            <mxPoint x="245" y="380" as="targetPoint" />
          </mxGeometry>
        </mxCell>
        <mxCell id="ym_wlVn3fW00bw_4UrsF-40" value="" style="endArrow=none;html=1;rounded=0;exitX=0.996;exitY=0.392;exitDx=0;exitDy=0;exitPerimeter=0;strokeWidth=2;" edge="1" parent="1">
          <mxGeometry width="50" height="50" relative="1" as="geometry">
            <mxPoint x="194.99999999999997" y="742.4800000000001" as="sourcePoint" />
            <mxPoint x="300" y="580" as="targetPoint" />
          </mxGeometry>
        </mxCell>
        <mxCell id="ym_wlVn3fW00bw_4UrsF-42" value="" style="rounded=1;whiteSpace=wrap;html=1;strokeWidth=1;" vertex="1" parent="1">
          <mxGeometry x="630" y="562.5" width="570" height="260" as="geometry" />
        </mxCell>
        <mxCell id="ym_wlVn3fW00bw_4UrsF-43" value="Verified.Me Service Host Network" style="text;html=1;strokeColor=none;fillColor=none;align=center;verticalAlign=middle;whiteSpace=wrap;rounded=0;strokeWidth=1;fontSize=17;" vertex="1" parent="1">
          <mxGeometry x="645" y="580" width="540" height="30" as="geometry" />
        </mxCell>
        <mxCell id="ym_wlVn3fW00bw_4UrsF-44" value="" style="ellipse;whiteSpace=wrap;html=1;aspect=fixed;strokeWidth=1;fontSize=17;" vertex="1" parent="1">
          <mxGeometry x="700" y="640" width="150" height="150" as="geometry" />
        </mxCell>
        <mxCell id="ym_wlVn3fW00bw_4UrsF-45" value="" style="ellipse;whiteSpace=wrap;html=1;aspect=fixed;strokeWidth=1;fontSize=17;" vertex="1" parent="1">
          <mxGeometry x="960" y="640" width="150" height="150" as="geometry" />
        </mxCell>
        <UserObject label="&lt;div style=&quot;font-size: 14px;&quot;&gt;Verified.Me&lt;/div&gt;&lt;div style=&quot;font-size: 14px;&quot;&gt;Node&lt;br style=&quot;font-size: 14px;&quot;&gt;&lt;/div&gt;" placeholders="1" name="Variable" id="ym_wlVn3fW00bw_4UrsF-46">
          <mxCell style="text;html=1;strokeColor=none;fillColor=none;align=center;verticalAlign=middle;whiteSpace=wrap;overflow=hidden;fontSize=14;" vertex="1" parent="1">
            <mxGeometry x="721.25" y="690" width="107.5" height="55" as="geometry" />
          </mxCell>
        </UserObject>
        <UserObject label="&lt;div style=&quot;font-size: 14px;&quot;&gt;Verified.Me&lt;/div&gt;&lt;div style=&quot;font-size: 14px;&quot;&gt;Node&lt;br style=&quot;font-size: 14px;&quot;&gt;&lt;/div&gt;" placeholders="1" name="Variable" id="ym_wlVn3fW00bw_4UrsF-49">
          <mxCell style="text;html=1;strokeColor=none;fillColor=none;align=center;verticalAlign=middle;whiteSpace=wrap;overflow=hidden;fontSize=14;" vertex="1" parent="1">
            <mxGeometry x="981.25" y="690" width="107.5" height="55" as="geometry" />
          </mxCell>
        </UserObject>
        <mxCell id="ym_wlVn3fW00bw_4UrsF-54" value="" style="endArrow=none;dashed=1;html=1;dashPattern=1 3;strokeWidth=2;rounded=0;fontSize=14;" edge="1" parent="1">
          <mxGeometry width="50" height="50" relative="1" as="geometry">
            <mxPoint x="940" y="714.66" as="sourcePoint" />
            <mxPoint x="860" y="714.66" as="targetPoint" />
          </mxGeometry>
        </mxCell>
        <mxCell id="ym_wlVn3fW00bw_4UrsF-55" value="" style="rounded=1;whiteSpace=wrap;html=1;" vertex="1" parent="1">
          <mxGeometry x="1380" y="290" width="190" height="550" as="geometry" />
        </mxCell>
        <mxCell id="ym_wlVn3fW00bw_4UrsF-56" value="" style="line;strokeWidth=1;html=1;" vertex="1" parent="1">
          <mxGeometry x="1380" y="360" width="190" height="10" as="geometry" />
        </mxCell>
        <mxCell id="ym_wlVn3fW00bw_4UrsF-57" value="" style="line;strokeWidth=1;html=1;" vertex="1" parent="1">
          <mxGeometry x="1380" y="500" width="190" height="10" as="geometry" />
        </mxCell>
        <mxCell id="ym_wlVn3fW00bw_4UrsF-58" value="" style="line;strokeWidth=1;html=1;" vertex="1" parent="1">
          <mxGeometry x="1380" y="640" width="190" height="10" as="geometry" />
        </mxCell>
        <UserObject label="Data Consumer" placeholders="1" name="Variable" id="ym_wlVn3fW00bw_4UrsF-59">
          <mxCell style="text;html=1;strokeColor=none;fillColor=none;align=center;verticalAlign=middle;whiteSpace=wrap;overflow=hidden;" vertex="1" parent="1">
            <mxGeometry x="1417.5" y="310" width="115" height="50" as="geometry" />
          </mxCell>
        </UserObject>
        <UserObject label="&lt;div&gt;Web/App Tier&lt;/div&gt;&lt;div&gt;&lt;br&gt;&lt;/div&gt;" placeholders="1" name="Variable" id="ym_wlVn3fW00bw_4UrsF-60">
          <mxCell style="text;html=1;strokeColor=none;fillColor=none;align=center;verticalAlign=middle;whiteSpace=wrap;overflow=hidden;" vertex="1" parent="1">
            <mxGeometry x="1435" y="420" width="80" height="30" as="geometry" />
          </mxCell>
        </UserObject>
        <UserObject label="&lt;div&gt;Application Services&lt;/div&gt;&lt;div&gt;&lt;br&gt;&lt;/div&gt;" placeholders="1" name="Variable" id="ym_wlVn3fW00bw_4UrsF-61">
          <mxCell style="text;html=1;strokeColor=none;fillColor=none;align=center;verticalAlign=middle;whiteSpace=wrap;overflow=hidden;" vertex="1" parent="1">
            <mxGeometry x="1410" y="562.5" width="130" height="30" as="geometry" />
          </mxCell>
        </UserObject>
        <mxCell id="ym_wlVn3fW00bw_4UrsF-65" value="" style="shape=partialRectangle;whiteSpace=wrap;html=1;bottom=0;right=0;fillColor=none;strokeWidth=1;direction=west;" vertex="1" parent="1">
          <mxGeometry x="1380" y="645" width="60" height="45" as="geometry" />
        </mxCell>
        <UserObject label="&lt;div&gt;DAC&lt;/div&gt;&lt;div&gt;Adapter&lt;/div&gt;" placeholders="1" name="Variable" id="ym_wlVn3fW00bw_4UrsF-66">
          <mxCell style="text;html=1;strokeColor=none;fillColor=none;align=center;verticalAlign=middle;whiteSpace=wrap;overflow=hidden;" vertex="1" parent="1">
            <mxGeometry x="1380" y="650" width="65" height="40" as="geometry" />
          </mxCell>
        </UserObject>
        <mxCell id="ym_wlVn3fW00bw_4UrsF-68" value="" style="rounded=1;whiteSpace=wrap;html=1;strokeWidth=1;fontSize=14;fillColor=#dae8fc;strokeColor=#6c8ebf;" vertex="1" parent="1">
          <mxGeometry x="820" y="300" width="150" height="220" as="geometry" />
        </mxCell>
        <mxCell id="ym_wlVn3fW00bw_4UrsF-70" value="" style="ellipse;whiteSpace=wrap;html=1;aspect=fixed;strokeWidth=1;fontSize=14;" vertex="1" parent="1">
          <mxGeometry x="880" y="480" width="30" height="30" as="geometry" />
        </mxCell>
        <mxCell id="ym_wlVn3fW00bw_4UrsF-71" value="" style="rounded=1;whiteSpace=wrap;html=1;strokeWidth=1;fontSize=14;" vertex="1" parent="1">
          <mxGeometry x="870" y="310" width="50" height="10" as="geometry" />
        </mxCell>
        <mxCell id="ym_wlVn3fW00bw_4UrsF-72" value="" style="rounded=1;whiteSpace=wrap;html=1;strokeWidth=1;fontSize=14;" vertex="1" parent="1">
          <mxGeometry x="830" y="330" width="130" height="140" as="geometry" />
        </mxCell>
        <UserObject label="&lt;div&gt;Verified.Me&lt;/div&gt;&lt;div&gt;App&lt;br&gt;&lt;/div&gt;" placeholders="1" name="Variable" id="ym_wlVn3fW00bw_4UrsF-73">
          <mxCell style="text;html=1;strokeColor=none;fillColor=none;align=center;verticalAlign=middle;whiteSpace=wrap;overflow=hidden;" vertex="1" parent="1">
            <mxGeometry x="837.5" y="370" width="115" height="50" as="geometry" />
          </mxCell>
        </UserObject>
      </root>
    </mxGraphModel>
  </diagram>
</mxfile>
